<svg width="61" height="28" viewBox="0 0 61 28" fill="none" xmlns="http://www.w3.org/2000/svg">
<path d="M8.30074 0L5.99972 13.1072L5.44126 16.4825L4.88584 13.3056L2.5421 0L2.26439 0.0396726H0V27.9601H2.5421V14.7735L4.13206 23.8707H6.71383L8.34041 14.5751V27.9997H10.8825V0.0396726H8.62117L8.30074 0Z" fill="#A6192E"/>
<path d="M22.3592 0.0795898H17.6351H15.6484V28H18.1905H22.3592V25.4579H18.1905V15.2101H21.5658V12.6711H18.1905V2.62169H22.3592V0.0795898Z" fill="#A6192E"/>
<path d="M33.5611 0.0795898H27.125V28H29.6671V15.4115H32.4869V28H35.0687V15.3322L33.7595 14.0596L35.0687 12.7504V1.55053L33.5611 0.0795898ZM32.4869 2.62169V12.7901H29.6671V2.62169H32.4869Z" fill="#A6192E"/>
<path d="M41.3435 0.0795898L39.8359 1.55053V26.5321L41.3435 28H46.1897L47.7003 26.5321V15.2498H43.6476V17.7919H45.1185V25.4579H42.378V2.62169H45.1185V8.02327H47.7003V1.55053L46.1897 0.0795898H41.3435Z" fill="#A6192E"/>
<path d="M60.3331 0.0795898H57.7513V25.4579H55.0109V0.0795898H52.4688V26.5321L53.9794 28H58.8255L60.3331 26.5321V0.0795898Z" fill="#A6192E"/>
</svg>
