<svg width="285" height="225" viewBox="0 0 285 225" fill="none" xmlns="http://www.w3.org/2000/svg">
<path fill-rule="evenodd" clip-rule="evenodd" d="M145.057 152.108C126.107 153.358 109.246 143.96 101.634 129.691L104.083 128.875L101.094 120.486L98.5544 121.928C97.9205 119.606 97.4679 117.105 97.3781 114.602C97.1976 111.921 97.2892 109.239 97.7434 106.644L102.729 108.677L102.008 97.8629L100.376 97.6917C106.636 83.2691 121.872 72.4703 140.187 71.3126C165.121 69.7665 186.513 86.564 187.866 108.908C187.865 109.802 187.956 110.695 187.955 111.589L187.774 111.501L187.864 112.395C187.132 133.228 168.721 150.657 145.057 152.108Z" fill="#251A06"/>
<path fill-rule="evenodd" clip-rule="evenodd" d="M182.101 126.335C204.762 141.16 227.334 155.985 249.995 170.81C256.069 174.089 260.786 167.72 260.154 158.872C257.536 123.839 256.278 88.8 254.386 53.6743C254.571 41.1573 251.037 34.8262 239.793 41.2259C219.84 57.7682 199.888 74.3999 179.936 90.9422C180.658 102.74 181.379 114.537 182.101 126.335ZM188.358 123.177L187.364 111.559L223.444 128.557L188.358 123.177ZM189.271 102.432L186.011 91.5398L234.613 75.6692L189.271 102.432Z" fill="#251A06"/>
<path fill-rule="evenodd" clip-rule="evenodd" d="M105.453 131.269C84.7749 148.888 64.0971 166.417 43.4192 184.035C37.7966 188.084 32.3584 182.299 31.908 173.45C30.2875 138.412 27.307 103.381 25.0518 68.3465C23.3332 55.9278 26.0554 49.2101 37.9312 54.072C59.7773 68.0066 81.5328 81.9416 103.379 95.9655C104.01 107.764 104.731 119.561 105.453 131.269ZM103.096 129.045L100.107 120.655L58.755 144.36L103.096 129.045ZM101.743 108.847L101.021 98.0327L66.7499 94.7051L101.743 108.847Z" fill="#251A06"/>
</svg>
