<svg width="72" height="72" viewBox="0 0 72 72" fill="none" xmlns="http://www.w3.org/2000/svg">
<path d="M54.6215 12.7529C52.3332 12.7529 50.4453 14.6401 50.4453 16.9275C50.4453 19.2721 52.3332 21.102 54.6215 21.102C56.9098 21.102 58.7977 19.2721 58.7977 16.9275C58.7977 14.6401 56.9098 12.7529 54.6215 12.7529Z" fill="#A6192E"/>
<path d="M36.042 46.9505C29.8063 46.9505 24.772 41.9182 24.772 35.6849C24.772 29.5089 29.8063 24.4193 36.042 24.4193C42.2205 24.4193 47.2548 29.5089 47.2548 35.6849C47.2548 41.9182 42.2205 46.9505 36.042 46.9505ZM36.042 18.1289C26.3166 18.1289 18.4219 26.0205 18.4219 35.6849C18.4219 45.4065 26.3166 53.2981 36.042 53.2981C45.7102 53.2981 53.605 45.4065 53.605 35.6849C53.605 26.0205 45.7102 18.1289 36.042 18.1289Z" fill="#A6192E"/>
<path d="M21.4531 6.74792C13.3295 6.74792 6.75058 13.3243 6.75058 21.4446V49.9231C6.75058 58.0435 13.3295 64.6771 21.4531 64.6771H50C58.1236 64.6771 64.7025 58.0435 64.7025 49.9231V21.4446C64.7025 13.3243 58.1236 6.74792 50 6.74792H21.4531ZM50 71.3678H21.4531C9.6682 71.3678 0 61.7606 0 49.9231V21.4446C0 9.6072 9.6682 0 21.4531 0H50C61.7849 0 71.4531 9.6072 71.4531 21.4446V49.9231C71.4531 61.7606 61.7849 71.3678 50 71.3678Z" fill="#A6192E"/>
</svg>
