<svg width="72" height="72" viewBox="0 0 72 72" fill="none" xmlns="http://www.w3.org/2000/svg">
<path d="M20.1951 59.0747L21.3966 59.8181C25.8017 62.4488 30.8934 63.8213 35.9851 63.8213C51.7751 63.8213 64.5901 51.0113 64.5901 35.2847C64.5901 19.5009 51.7751 6.69094 35.9851 6.69094C20.1951 6.69094 7.3801 19.5009 7.3801 35.2847C7.3801 40.4888 8.81035 45.5784 11.5564 50.0963L12.3002 51.2972L9.43966 61.9341L20.1951 59.0747ZM0 71.37L5.1489 52.2694C2.23119 47.0653 0.686521 41.2322 0.686521 35.2847C0.686521 15.8409 16.5337 0 35.9851 0C55.4365 0 71.2265 15.8409 71.2265 35.2847C71.2265 54.6713 55.4365 70.5122 35.9851 70.5122C30.1497 70.5122 24.3715 69.0253 19.2226 66.2231L0 71.37Z" fill="#A6192E"/>
<path fill-rule="evenodd" clip-rule="evenodd" d="M49.0738 40.1462C47.6436 39.2884 45.7556 38.3162 44.0393 39.0025C42.7235 39.5743 41.8654 41.6331 41.0072 42.6625C40.6067 43.1771 40.0918 43.2915 39.4053 43.0056C34.4853 41.0612 30.7094 37.7443 27.9633 33.2265C27.5056 32.5403 27.6201 31.9684 28.1922 31.3393C28.9931 30.3671 30.0229 29.2806 30.2517 27.9653C30.4806 26.6499 29.8513 25.1631 29.3364 23.9621C28.6498 22.4753 27.8489 20.3593 26.3614 19.5587C24.9884 18.7581 23.2149 19.2156 22.0135 20.1878C19.8967 21.9034 18.8669 24.5912 18.9241 27.2218C18.9241 27.9653 19.0386 28.7659 19.2102 29.4521C19.6107 31.2249 20.4116 32.8262 21.327 34.4275C22.0135 35.5712 22.7572 36.715 23.5581 37.8015C26.1898 41.4043 29.508 44.4925 33.2839 46.8371C35.1718 47.9809 37.2313 49.0103 39.3481 49.6965C41.6937 50.4971 43.8105 51.2978 46.385 50.7831C49.0738 50.3256 51.7055 48.6671 52.7925 46.0365C53.0785 45.2931 53.2502 44.4353 53.0785 43.6346C52.6781 41.9762 50.4469 40.9468 49.0738 40.1462Z" fill="#A6192E"/>
</svg>
